HIERARCHY
ROOT Hips
{
	OFFSET 0.000000 0.000000 0.000000
	CHANNELS 6 Xposition Yposition Zposition Zrotation Yrotation Xrotation 
	JOINT LHipJoint
	{
		OFFSET 0.000000 0.000000 0.000000
		CHANNELS 3 Zrotation Yrotation Xrotation
		JOINT LeftUpLeg
		{
			OFFSET 8.178360 -10.767780 5.035740
			CHANNELS 3 Zrotation Yrotation Xrotation
			JOINT LeftLeg
			{
				OFFSET 14.688660 -40.356780 0.000000
				CHANNELS 3 Zrotation Yrotation Xrotation
				JOINT LeftFoot
				{
					OFFSET 15.373200 -42.237540 0.000000
					CHANNELS 3 Zrotation Yrotation Xrotation
					JOINT LeftToeBase
					{
						OFFSET 0.945840 -2.598660 13.935300
						CHANNELS 3 Zrotation Yrotation Xrotation
						End Site
						{
							OFFSET 0.000000 0.000000 0.000000
						}
					}
				}
			}
		}
	}
	JOINT RHipJoint
	{
		OFFSET 0.000000 0.000000 0.000000
		CHANNELS 3 Zrotation Yrotation Xrotation
		JOINT RightUpLeg
		{
			OFFSET -7.833120 -10.767780 5.035740
			CHANNELS 3 Zrotation Yrotation Xrotation
			JOINT RightLeg
			{
				OFFSET -15.255180 -41.913300 0.000000
				CHANNELS 3 Zrotation Yrotation Xrotation
				JOINT RightFoot
				{
					OFFSET -15.409560 -42.337380 0.000000
					CHANNELS 3 Zrotation Yrotation Xrotation
					JOINT RightToeBase
					{
						OFFSET -0.988380 -2.715540 14.178900
						CHANNELS 3 Zrotation Yrotation Xrotation
						End Site
						{
							OFFSET 0.000000 0.000000 0.000000
						}
					}
				}
			}
		}
	}
	JOINT LowerBack
	{
		OFFSET 0.000000 0.000000 0.000000
		CHANNELS 3 Zrotation Yrotation Xrotation
		JOINT Spine
		{
			OFFSET 0.169620 12.213540 -1.160280
			CHANNELS 3 Zrotation Yrotation Xrotation
			JOINT Spine1
			{
				OFFSET 0.340320 12.293100 -0.256500
				CHANNELS 3 Zrotation Yrotation Xrotation
				JOINT Neck
				{
					OFFSET 0.000000 0.000000 0.000000
					CHANNELS 3 Zrotation Yrotation Xrotation
					JOINT Neck1
					{
						OFFSET -0.325020 10.477440 1.032120
						CHANNELS 3 Zrotation Yrotation Xrotation
						JOINT Head
						{
							OFFSET 0.624420 10.568160 -0.743820
							CHANNELS 3 Zrotation Yrotation Xrotation
							End Site
							{
								OFFSET 0.000000 0.000000 0.000000
							}
						}
					}
				}
				JOINT LeftShoulder
				{
					OFFSET 0.000000 0.000000 0.000000
					CHANNELS 3 Zrotation Yrotation Xrotation
					JOINT LeftArm
					{
						OFFSET 20.174460 7.205340 -1.867260
						CHANNELS 3 Zrotation Yrotation Xrotation
						JOINT LeftForeArm
						{
							OFFSET 29.898000 -0.000000 -0.000000
							CHANNELS 3 Zrotation Yrotation Xrotation
							JOINT LeftHand
							{
								OFFSET 20.901360 -0.000000 -0.000000
								CHANNELS 3 Zrotation Yrotation Xrotation
								JOINT LeftFingerBase
								{
									OFFSET 0.000000 0.000000 0.000000
									CHANNELS 3 Zrotation Yrotation Xrotation
									JOINT LeftHandIndex1
									{
										OFFSET 4.291560 -0.000000 -0.000000
										CHANNELS 3 Zrotation Yrotation Xrotation
										End Site
										{
											OFFSET 0.000000 0.000000 0.000000
										}
									}
								}
								JOINT LThumb
								{
									OFFSET 0.000000 0.000000 0.000000
									CHANNELS 3 Zrotation Yrotation Xrotation
									End Site
									{
										OFFSET 0.000000 0.000000 0.000000
									}
								}
							}
						}
					}
				}
				JOINT RightShoulder
				{
					OFFSET 0.000000 0.000000 0.000000
					CHANNELS 3 Zrotation Yrotation Xrotation
					JOINT RightArm
					{
						OFFSET -18.819600 8.244300 -2.427900
						CHANNELS 3 Zrotation Yrotation Xrotation
						JOINT RightForeArm
						{
							OFFSET -31.451400 -0.000000 -0.000000
							CHANNELS 3 Zrotation Yrotation Xrotation
							JOINT RightHand
							{
								OFFSET -20.665020 -0.000000 -0.000000
								CHANNELS 3 Zrotation Yrotation Xrotation
								JOINT RightFingerBase
								{
									OFFSET 0.000000 0.000000 0.000000
									CHANNELS 3 Zrotation Yrotation Xrotation
									JOINT RightHandIndex1
									{
										OFFSET -3.735180 -0.000000 -0.000000
										CHANNELS 3 Zrotation Yrotation Xrotation
										End Site
										{
											OFFSET 0.000000 0.000000 0.000000
										}
									}
								}
								JOINT RThumb
								{
									OFFSET 0.000000 0.000000 0.000000
									CHANNELS 3 Zrotation Yrotation Xrotation
									End Site
									{
										OFFSET 0.000000 0.000000 0.000000
									}
								}
							}
						}
					}
				}
			}
		}
	}
}
MOTION
Frames:	8
Frame Time:	0.0333333
74.086896 107.334138 -66.691614 -1.750262 3.421345 3.233463 -2.477746 1.051056 1.695989 -11.511832 -8.855258 -15.638482 2.958307 12.032048 36.798224 0.366361 -1.794673 -4.022055 0.445200 -4.280900 -11.868300 1.043017 -1.133795 1.337358 26.543044 1.353718 -9.187709 -1.565396 -8.416185 25.708850 -0.340498 -0.596268 -7.774657 -0.095000 -1.988000 5.472500 2.438335 0.407190 7.279947 1.944029 0.848752 1.168821 -0.299003 0.398200 -3.660809 -11.816318 -5.511615 -14.590073 5.582996 -5.922144 23.987461 4.014300 -3.469800 15.596400 -6.102620 -0.685157 -1.746622 -84.972356 6.701797 18.049876 19.845787 -27.859844 -5.954792 -0.989599 -2.596390 2.185555 19.600684 24.850785 9.796600 -7.125000 0.000000 0.000000 -11.133300 58.679700 -3.753200 5.172027 1.266901 -1.053056 83.587110 -1.968210 13.866035 -15.715226 23.281124 -3.441043 0.338178 -0.205656 7.183234 -14.540975 9.450429 -2.541600 7.125000 0.000000 0.000000 8.607900 -20.104000 5.182800 
73.811040 107.302290 -66.405534 -2.140464 3.141072 2.536846 -2.297487 0.946775 1.487248 -11.238816 -8.603991 -17.615319 3.876539 13.075398 40.449264 0.321307 -1.603575 -4.133472 0.651900 -5.164600 -14.378500 0.994733 -1.133015 1.392405 27.156399 0.561399 -8.046673 -1.441044 -8.083176 24.811012 -0.427875 -0.075503 -7.484694 -0.074900 -1.765300 4.857500 2.697536 0.636853 7.952622 2.054179 1.203295 1.381598 -0.266164 0.578905 -3.650257 -11.972285 -5.649163 -14.190481 5.784419 -6.126408 23.600426 4.098100 -3.543100 15.331300 -6.063725 -0.667611 -1.735553 -84.719235 6.674339 18.706422 20.252570 -28.362077 -6.214698 -0.961692 -2.506968 1.977811 19.628613 23.643688 9.382100 -7.125000 0.000000 0.000000 -10.442200 57.378600 -3.189100 5.176037 1.305781 -1.016349 83.397242 -1.523979 14.455767 -15.713780 23.284678 -3.442293 0.339397 -0.227012 6.607468 -14.581754 10.176579 -2.746100 7.125000 0.000000 0.000000 8.561000 -19.335700 5.302700 
73.581456 107.340750 -65.975820 -2.458491 2.498425 2.148425 -2.183316 0.829733 1.317594 -10.935371 -8.117345 -19.523532 4.284961 13.518855 41.976387 0.529167 -3.240323 -3.964325 0.494000 -4.506500 -12.506200 0.971307 -1.123814 1.434657 27.598781 0.053077 -6.958483 -1.283701 -7.690353 23.712381 -0.477551 0.272574 -7.160600 -0.042000 -1.322800 3.637500 2.905271 1.007509 8.382179 2.117982 1.726518 1.581511 -0.300719 0.846563 -3.522933 -12.022876 -5.920087 -14.319660 5.892267 -6.490984 23.429148 4.093200 -3.673800 15.332100 -6.026409 -0.642542 -1.737763 -84.441995 6.814451 19.353001 20.644522 -28.856307 -6.454759 -0.976128 -2.580130 1.707013 20.181864 24.805200 10.076800 -7.125000 0.000000 0.000000 -10.454200 58.745900 -3.537600 5.178616 1.334107 -0.984838 83.277958 -0.819643 15.325877 -15.742654 23.308678 -3.450307 0.366458 -0.212556 5.858182 -15.165390 9.853220 -2.770900 7.125000 0.000000 0.000000 8.137500 -19.645100 4.978200 
73.423998 107.382822 -65.377830 -2.171014 2.022611 2.248413 -2.170536 0.692891 1.163055 -11.207623 -7.692450 -21.277787 4.053533 13.349685 41.138953 0.585802 -3.685925 -3.739336 0.564500 -4.812100 -13.373400 0.998031 -1.105973 1.484384 27.260910 -0.424356 -6.482522 -1.185887 -7.432022 22.989205 -0.586797 0.882775 -6.930169 -0.044900 -1.367300 3.760000 2.740296 1.344935 8.224179 1.948469 2.135422 1.586921 -0.523332 1.069102 -3.399603 -11.933719 -6.027963 -14.318910 6.047081 -6.700609 23.351253 4.119200 -3.725200 15.326600 -6.012253 -0.594560 -1.743183 -83.826028 7.352673 19.261857 20.705093 -28.985645 -6.527737 -0.862707 -2.435280 1.558858 18.892751 22.607865 8.634900 -7.125000 0.000000 0.000000 -10.765900 56.087300 -2.952200 5.161828 1.339425 -0.974947 83.416838 -0.480222 15.905989 -15.705729 23.272917 -3.443680 0.341985 -0.196739 5.130300 -14.266310 9.685354 -2.553400 7.125000 0.000000 0.000000 8.799400 -19.875500 5.346500 
73.321830 107.451336 -64.734762 -2.041891 1.646294 2.179432 -2.220244 0.585344 1.040107 -11.212677 -7.640044 -22.472152 3.397613 12.733978 38.651207 0.503277 -3.072587 -3.064275 0.343300 -3.765100 -10.416700 1.034921 -1.095645 1.531298 27.120484 -0.594537 -5.537880 -1.050655 -7.100039 22.041952 -0.575570 0.858224 -6.838617 -0.019000 -0.890100 2.446300 2.752931 1.552981 8.478688 1.881172 2.414509 1.609881 -0.668157 1.220475 -3.488120 -12.109589 -6.115234 -14.404922 6.286372 -6.765670 23.013895 4.246100 -3.735300 15.225000 -6.006592 -0.537826 -1.760199 -83.667295 7.958391 18.711676 20.684045 -28.997355 -6.523920 -0.882136 -2.359550 1.987833 19.036348 21.677942 8.383300 -7.125000 0.000000 0.000000 -10.162600 55.108600 -2.541800 5.140019 1.360947 -0.960331 83.466697 -0.004311 16.755344 -15.983336 23.656433 -3.566691 0.355777 -0.215364 5.194788 -14.830813 10.229681 -2.808800 7.125000 0.000000 0.000000 8.376500 -19.271400 5.198100 
73.289976 107.504226 -63.939636 -1.992297 1.485169 2.139505 -2.315037 0.498666 0.932035 -11.073477 -7.956653 -23.215317 2.505676 11.773580 35.073437 0.265945 -1.411445 -1.967814 0.394400 -4.032600 -11.168300 1.090118 -1.088475 1.580342 27.002319 -0.864643 -4.502304 -0.907582 -6.735781 21.000315 -0.576418 0.883140 -6.788809 -0.019100 -0.892100 2.452000 3.061341 1.743194 8.645492 1.748204 2.699865 1.602668 -1.106186 1.375365 -3.565905 -12.076147 -6.266967 -14.384751 6.393477 -6.977632 22.492393 4.246900 -3.794200 15.008100 -6.022805 -0.481565 -1.769963 -83.239269 8.583527 18.414365 20.336537 -28.629656 -6.312670 -0.908678 -2.400516 2.303389 19.095516 22.392998 8.660300 -7.125000 0.000000 0.000000 -10.428000 55.891400 -2.808300 5.113711 1.370340 -0.960083 83.674865 0.026888 17.567275 -16.399115 24.226165 -3.759327 0.348887 -0.165719 4.542381 -14.435404 9.200501 -2.451400 7.125000 0.000000 0.000000 8.690500 -20.389400 5.177300 
73.268940 107.550498 -63.115068 -2.117989 1.342529 2.213385 -2.394188 0.389273 0.813090 -10.675290 -7.904762 -24.213073 1.599605 10.640880 31.101442 0.145111 -0.625440 -0.241856 0.279600 -3.401200 -9.397800 1.135483 -1.071333 1.623344 27.105269 -1.015418 -3.452502 -0.746198 -6.306625 19.785623 -0.535595 0.755021 -6.540991 -0.013300 -0.745400 2.048600 3.481660 1.846840 8.802384 1.676600 2.884001 1.616656 -1.510210 1.477764 -3.579972 -12.086088 -6.406482 -14.708586 6.532856 -7.114001 22.002833 4.279200 -3.818600 14.891400 -6.083046 -0.434906 -1.772471 -82.966085 8.796515 17.310417 19.507414 -27.645042 -5.806610 -1.006154 -2.363247 2.894894 19.660308 22.044633 8.831900 -7.125000 0.000000 0.000000 -9.592600 55.638000 -2.521100 5.105375 1.393156 -0.956858 83.744601 0.406710 18.814819 -16.859164 24.850460 -3.978755 0.337318 -0.119665 3.198176 -13.844236 8.469795 -2.155200 7.125000 0.000000 0.000000 9.150500 -21.199300 5.288900 
73.263528 107.559516 -62.151666 -2.224121 1.272201 2.201563 -2.494374 0.299955 0.709168 -10.253409 -8.080319 -24.835278 0.762915 9.404307 27.040930 0.047537 0.121557 1.375529 0.424800 -4.183100 -11.592500 1.177528 -1.064675 1.667586 27.161448 -1.390265 -2.217733 -0.588613 -5.857553 18.520430 -0.518107 0.695196 -6.475700 -0.016800 -0.837400 2.301600 3.734912 1.929581 8.940411 1.679539 3.021701 1.685771 -1.678156 1.556538 -3.520137 -12.235547 -6.529919 -14.859177 6.698161 -7.193180 21.403267 4.350800 -3.834400 14.673000 -6.138554 -0.385457 -1.770195 -82.972507 8.971182 15.996495 18.785956 -26.756725 -5.382021 -0.971815 -2.379047 3.541244 18.522365 22.240205 8.350100 -7.125000 0.000000 0.000000 -10.940500 55.617100 -2.875500 5.101953 1.412342 -0.944483 83.680187 0.883572 19.729343 -17.389378 25.545292 -4.223977 0.367828 -0.096662 2.704096 -14.710828 8.057667 -2.181500 7.125000 0.000000 0.000000 8.520900 -21.603200 4.837800 
